<?xml version="1.0" standalone="no"?>
<!DOCTYPE svg PUBLIC "-//W3C//DTD SVG 20010904//EN"
 "http://www.w3.org/TR/2001/REC-SVG-20010904/DTD/svg10.dtd">
<svg version="1.0" xmlns="http://www.w3.org/2000/svg"
 width="1920.000000pt" height="1260.000000pt" viewBox="0 0 1920.000000 1260.000000"
 preserveAspectRatio="xMidYMid meet">
<metadata>
Created by potrace 1.16, written by Peter Selinger 2001-2019
</metadata>
<g transform="translate(0.000000,1260.000000) scale(0.100000,-0.100000)"
fill="#000000" stroke="none">
<path d="M0 8600 l0 -4002 848 7 c466 3 855 9 865 11 24 7 22 17 -23 92 -93
158 -135 300 -134 462 0 99 4 126 28 195 78 225 257 393 536 501 97 37 282 84
335 84 17 0 129 -21 249 -47 l220 -48 25 -37 c27 -38 58 -58 91 -58 23 0 27
38 35 325 3 110 8 229 11 265 l6 65 632 73 631 73 550 0 c379 0 729 -7 1125
-22 504 -18 662 -20 1275 -15 736 7 898 2 1114 -35 177 -30 293 -68 396 -130
l50 -30 -2 -197 c-8 -612 -58 -1112 -149 -1472 -19 -74 -34 -145 -34 -157 l0
-23 333 0 332 0 189 77 189 77 586 -57 c322 -32 631 -57 686 -57 131 0 256 20
445 70 328 86 349 90 538 90 l172 0 67 -52 67 -53 210 -6 c127 -3 288 -15 404
-29 l194 -24 126 31 c204 52 235 54 651 51 l386 -3 278 48 c153 26 293 47 311
47 43 0 147 -36 276 -96 l105 -49 462 -3 463 -3 139 41 c131 38 147 40 268 40
153 0 283 -16 540 -67 l192 -37 238 18 c131 10 272 23 313 29 101 16 704 15
890 -1 80 -7 214 -20 298 -29 84 -8 156 -13 159 -9 7 7 -15 7880 -23 7982 l-5
72 -327 6 c-180 3 -4491 9 -9579 12 l-9253 6 0 -4002z"/>
<path d="M2104 5572 c-61 -60 -133 -142 -159 -182 -118 -178 -134 -371 -43
-543 28 -53 47 -73 131 -135 54 -41 110 -91 125 -112 l27 -39 523 -1 c380 0
522 3 522 11 0 6 -24 97 -52 202 l-53 190 -45 30 c-43 29 -50 42 -165 285
-105 225 -124 258 -158 283 -81 59 -255 105 -437 115 l-105 6 -111 -110z"/>
</g>
</svg>
